
      <svg data-logo="logo" xmlns="http://www.w3.org/2000/svg" viewBox="0 0 112 43">
        <g id="logogram" transform="translate(0, 1) rotate(0) "><path d="M13.0832 0.429993L23.4173 9.25886C24.0309 9.78301 24.3845 10.5522 24.3845 11.3623V18.0162L14.0503 9.18733C13.4368 8.66319 13.0832 7.894 13.0832 7.08386V0.429993Z" fill="#F2F0F5"/><path d="M13.0832 40.43L23.4173 31.6011C24.0309 31.077 24.3845 30.3078 24.3845 29.4977V22.8438L14.0503 31.6727C13.4368 32.1968 13.0832 32.966 13.0832 33.7761V40.43Z" fill="#F2F0F5"/><path d="M0.754395 9.74034L10.948 18.4005C11.4422 18.8204 12.0681 19.0507 12.7147 19.0507H20.9354L10.7669 10.3925C10.2723 9.9714 9.64557 9.74034 8.99786 9.74034H0.754395Z" fill="#7B19D8"/><path d="M0.754395 31.1196L10.8853 22.4645C11.3804 22.0415 12.0086 21.8093 12.6578 21.8093H20.9599L10.7663 30.4694C10.2721 30.8893 9.64625 31.1196 8.99957 31.1196H0.754395Z" fill="#7B19D8"/><path d="M38.4256 0.429993L28.0914 9.25886C27.4779 9.78301 27.1243 10.5522 27.1243 11.3623V18.0162L37.4584 9.18733C38.072 8.66319 38.4256 7.894 38.4256 7.08386V0.429993Z" fill="#F2F0F5"/><path d="M38.4256 40.43L28.0914 31.6011C27.4779 31.077 27.1243 30.3078 27.1243 29.4977V22.8438L37.4584 31.6727C38.072 32.1968 38.4256 32.966 38.4256 33.7761V40.43Z" fill="#F2F0F5"/><path d="M50.7544 9.74034L40.5608 18.4005C40.0666 18.8204 39.4407 19.0507 38.7941 19.0507H30.5733L40.7419 10.3925C41.2364 9.9714 41.8632 9.74034 42.5109 9.74034H50.7544Z" fill="#7B19D8"/><path d="M50.7544 31.1196L40.6235 22.4645C40.1284 22.0415 39.5002 21.8093 38.851 21.8093H30.5489L40.7425 30.4694C41.2367 30.8893 41.8625 31.1196 42.5092 31.1196H50.7544Z" fill="#7B19D8"/></g>
        <g id="logotype" transform="translate(57, 9)"><path fill="#bea2ae" d="M14.29 24.63L14.29 24.63Q12.37 24.63 10.38 24.16Q8.38 23.68 7.05 22.91L7.05 22.91L7.22 18.16L7.58 18.16L8.66 20.43Q9.15 21.41 9.71 22.16Q10.27 22.91 11.25 23.34L11.25 23.34Q11.95 23.68 12.60 23.81Q13.25 23.93 14.05 23.93L14.05 23.93Q16.19 23.93 17.43 22.77Q18.67 21.62 18.67 19.80L18.67 19.80Q18.67 18.09 17.83 17.12Q16.99 16.16 15.14 15.25L15.14 15.25L13.70 14.62Q10.69 13.29 8.99 11.56Q7.29 9.82 7.29 6.95L7.29 6.95Q7.29 4.89 8.36 3.38Q9.43 1.88 11.34 1.07Q13.25 0.27 15.80 0.27L15.80 0.27Q17.66 0.27 19.32 0.76Q20.98 1.25 22.21 2.09L22.21 2.09L22.00 6.29L21.65 6.29L20.21 3.66Q19.62 2.44 19.02 1.93Q18.43 1.42 17.66 1.21L17.66 1.21Q17.20 1.07 16.82 1.02Q16.43 0.97 15.84 0.97L15.84 0.97Q14.05 0.97 12.83 2.00Q11.60 3.03 11.60 4.78L11.60 4.78Q11.60 6.57 12.55 7.64Q13.49 8.70 15.31 9.54L15.31 9.54L16.92 10.24Q20.28 11.71 21.75 13.38Q23.22 15.04 23.22 17.66L23.22 17.66Q23.22 20.75 20.89 22.69Q18.57 24.63 14.29 24.63ZM33.16 24L24.94 24L24.94 23.65L25.43 23.51Q26.09 23.34 26.35 22.91Q26.62 22.50 26.65 21.80L26.65 21.80L26.65 10.84Q26.65 10.07 26.41 9.70Q26.16 9.33 25.46 9.19L25.46 9.19L24.94 9.05L24.94 8.70L30.92 6.67L31.27 7.02L31.55 9.40Q32.71 8.25 34.19 7.44Q35.68 6.64 37.29 6.64L37.29 6.64Q38.97 6.64 39.99 7.32Q41 8.00 41.53 9.44L41.53 9.44Q42.89 8.14 44.48 7.39Q46.08 6.64 47.58 6.64L47.58 6.64Q50.07 6.64 51.24 7.83Q52.41 9.02 52.41 11.57L52.41 11.57L52.41 21.83Q52.41 23.20 53.67 23.55L53.67 23.55L54.06 23.65L54.06 24L45.97 24L45.97 23.65L46.32 23.55Q46.99 23.34 47.25 22.91Q47.51 22.50 47.51 21.80L47.51 21.80L47.51 11.08Q47.51 9.61 46.99 9.07Q46.46 8.53 45.31 8.53L45.31 8.53Q44.40 8.53 43.54 8.93Q42.68 9.33 41.73 10.14L41.73 10.14Q41.91 10.70 41.96 11.36Q42.02 12.03 42.02 12.76L42.02 12.76L42.02 21.83Q42.05 23.20 43.28 23.55L43.28 23.55L43.59 23.65L43.59 24L35.47 24L35.47 23.65L35.96 23.51Q36.63 23.30 36.89 22.90Q37.15 22.50 37.15 21.80L37.15 21.80L37.15 11.12Q37.15 9.72 36.64 9.12Q36.14 8.53 34.91 8.53L34.91 8.53Q34.11 8.53 33.30 8.93Q32.50 9.33 31.62 10.10L31.62 10.10L31.62 21.83Q31.62 23.20 32.85 23.55L32.85 23.55L33.16 23.65L33.16 24Z"/></g>
        
      </svg>
    